HIERARCHY
ROOT Hips
{
	OFFSET -3.958830 18.904000 13.208200
	CHANNELS 6 Xposition Yposition Zposition Zrotation Yrotation Xrotation 
	JOINT LHipJoint
	{
		OFFSET 0.000000 0.000000 0.000000
		CHANNELS 3 Zrotation Yrotation Xrotation
		JOINT LeftUpLeg
		{
			OFFSET 1.800000 -1.400000 0.085000
			CHANNELS 3 Zrotation Yrotation Xrotation
			JOINT LeftLeg
			{
				OFFSET 2.215000 -6.000000 0.000000
				CHANNELS 3 Zrotation Yrotation Xrotation
				JOINT LeftFoot
				{
					OFFSET 2.500000 -6.900000 0.000000
					CHANNELS 3 Zrotation Yrotation Xrotation
					JOINT LeftToeBase
					{
						OFFSET 0.200000 -0.500000 1.950000
						CHANNELS 3 Zrotation Yrotation Xrotation
						End Site
						{
							OFFSET 0.000000 0.000000 0.000000
						}
					}
				}
			}
		}
	}
	JOINT RHipJoint
	{
		OFFSET 0.000000 0.000000 0.000000
		CHANNELS 3 Zrotation Yrotation Xrotation
		JOINT RightUpLeg
		{
			OFFSET -1.800000 -1.400000 0.085000
			CHANNELS 3 Zrotation Yrotation Xrotation
			JOINT RightLeg
			{
				OFFSET -2.215000 -6.000000 0.000000
				CHANNELS 3 Zrotation Yrotation Xrotation
				JOINT RightFoot
				{
					OFFSET -2.500000 -6.900000 0.000000
					CHANNELS 3 Zrotation Yrotation Xrotation
					JOINT RightToeBase
					{
						OFFSET -0.200000 -0.500000 1.950000
						CHANNELS 3 Zrotation Yrotation Xrotation
						End Site
						{
							OFFSET 0.000000 0.000000 0.000000
						}
					}
				}
			}
		}
	}
	JOINT LowerBack
	{
		OFFSET 0.000000 0.000000 0.000000
		CHANNELS 3 Zrotation Yrotation Xrotation
		JOINT Spine
		{
			OFFSET -0.087000 1.940000 -0.288900
			CHANNELS 3 Zrotation Yrotation Xrotation
			JOINT Spine1
			{
				OFFSET 0.000000 1.950000 0.060000
				CHANNELS 3 Zrotation Yrotation Xrotation
				JOINT Neck
				{
					OFFSET 0.000000 0.000000 0.000000
					CHANNELS 3 Zrotation Yrotation Xrotation
					JOINT Neck1
					{
						OFFSET 0.000000 1.600000 0.340000
						CHANNELS 3 Zrotation Yrotation Xrotation
						JOINT Head
						{
							OFFSET 0.000000 1.667000 -0.240000
							CHANNELS 3 Zrotation Yrotation Xrotation
							End Site
							{
								OFFSET 0.000000 0.000000 0.000000
							}
						}
					}
				}
				JOINT LeftShoulder
				{
					OFFSET 0.000000 0.000000 0.000000
					CHANNELS 3 Zrotation Yrotation Xrotation
					JOINT LeftArm
					{
						OFFSET 2.700000 1.550000 -0.730000
						CHANNELS 3 Zrotation Yrotation Xrotation
						JOINT LeftForeArm
						{
							OFFSET 5.450000 0.000000 0.000000
							CHANNELS 3 Zrotation Yrotation Xrotation
							JOINT LeftHand
							{
								OFFSET 3.450000 0.000000 0.000000
								CHANNELS 3 Zrotation Yrotation Xrotation
								JOINT LeftHandIndex1
								{
									OFFSET 0.750000 0.000000 0.000000
									CHANNELS 3 Zrotation Yrotation Xrotation
									End Site
									{
										OFFSET 0.000000 0.000000 0.000000
									}
								}
							}
						}
					}
				}
				JOINT RightShoulder
				{
					OFFSET 0.000000 0.000000 0.000000
					CHANNELS 3 Zrotation Yrotation Xrotation
					JOINT RightArm
					{
						OFFSET -2.700000 1.550000 -0.730000
						CHANNELS 3 Zrotation Yrotation Xrotation
						JOINT RightForeArm
						{
							OFFSET -5.450000 0.000000 0.000000
							CHANNELS 3 Zrotation Yrotation Xrotation
							JOINT RightHand
							{
								OFFSET -3.450000 0.000000 0.000000
								CHANNELS 3 Zrotation Yrotation Xrotation
								JOINT RightHandIndex1
								{
									OFFSET -0.750000 0.000000 0.000000
									CHANNELS 3 Zrotation Yrotation Xrotation
									End Site
									{
										OFFSET 0.000000 0.000000 0.000000
									}
								}
							}
						}
					}
				}
			}
		}
	}
}
MOTION
Frames: 6
Frame Time: 0.016667
0.228550 16.782730 -0.441850 -1.975163 -11.555229 12.288376 -15.320617 12.903630 2.533193 0.504455 -0.897402 -8.854765 -9.717303 6.009911 10.392426 -0.744042 4.801600 3.351889 0.443780 0.017860 0.193000 18.457958 -9.126458 3.859595 8.003084 7.660890 -39.442525 3.989232 -2.496411 10.750651 0.431324 -1.695715 4.125800 0.341450 0.844010 0.232840 -3.669308 -2.900136 -6.898610 12.158925 -8.101940 4.242047 -10.483973 -7.322790 2.443446 2.772222 -4.336000 -3.104716 -7.498259 11.176628 14.877996 -3.768290 7.875050 -1.237000 -13.595429 13.207128 -2.984097 -41.026122 2.438989 -9.737749 47.041000 -62.735198 -27.274965 -4.082212 2.607535 0.194090 0.730370 -0.616820 0.374190 8.384834 -14.090496 1.705873 51.746953 -18.032796 -16.893310 24.956598 37.826385 4.143800 1.377338 -1.987139 -0.483080 0.367880 0.029360 -0.285250 
0.224170 16.782290 -0.419910 -2.310131 -11.990721 12.117542 -15.291253 12.950040 2.561698 0.949564 -0.936289 -8.724889 -10.132692 6.188237 10.737926 -0.652199 4.803761 3.333111 0.448550 0.017610 0.206510 18.470072 -9.131532 3.884310 8.685746 7.706397 -38.822380 3.730345 -2.449822 10.594670 0.399292 -1.615316 4.160415 0.287640 0.773090 0.226640 -3.719752 -2.979668 -7.004870 12.852844 -8.291678 5.538019 -10.796601 -7.413733 1.620090 2.909526 -4.622575 -3.354103 -8.036098 11.291318 15.582933 -3.336980 8.197920 -1.788950 -13.633360 13.160965 -2.964701 -39.675939 3.144097 -9.923911 48.349975 -62.739295 -27.876766 -3.988474 2.599637 0.237110 0.656280 -0.557170 0.373720 8.059721 -13.944229 2.050364 51.773687 -19.269001 -17.840972 24.753042 39.272186 4.470387 1.410874 -1.983242 -0.440840 0.327300 -0.002430 -0.278690 
0.220260 16.780170 -0.378240 -2.918241 -12.407611 11.998854 -15.238071 12.997565 2.590305 1.733120 -1.018213 -8.551912 -10.715926 6.435549 11.212862 -0.561711 4.838054 3.302204 0.469380 0.037840 0.247310 18.500665 -9.150093 3.903978 9.476699 7.708968 -37.807545 3.721460 -2.418596 10.152173 0.349719 -1.525113 4.190486 0.247110 0.681100 0.209530 -3.831089 -3.045316 -7.122401 14.432092 -9.036975 7.199027 -11.466821 -7.946203 0.430224 2.987679 -5.297691 -3.592045 -9.257675 11.578100 16.140887 -3.339750 8.728000 -3.040620 -13.454613 13.431785 -2.986040 -37.590188 4.373416 -9.892855 48.488783 -62.059968 -27.278078 -3.891129 2.616716 0.297130 0.563830 -0.476520 0.374050 7.591863 -13.948635 2.375550 50.966436 -20.633072 -18.509357 25.503403 41.638144 5.364805 1.437104 -2.006142 -0.404550 0.299630 -0.050580 -0.279300 
0.207370 16.767060 -0.331860 -3.290743 -12.861333 12.359946 -15.222724 13.029316 2.614613 2.355843 -1.250634 -9.042118 -11.498289 6.799116 12.207180 -0.518793 4.963092 3.246886 0.450630 0.008950 0.265140 18.506401 -9.105089 3.925952 9.882775 7.796695 -37.510624 3.925133 -2.444897 10.028456 0.342891 -1.483115 4.208184 0.212690 0.643200 0.184790 -3.858138 -3.189874 -7.184852 15.374862 -9.891884 8.143025 -11.744394 -8.572553 -0.233461 2.975110 -5.927268 -4.011194 -10.413099 12.013770 15.796875 -3.856370 9.324920 -3.522420 -12.271948 13.756611 -2.611670 -36.765880 5.748318 -9.846548 50.030557 -60.126303 -26.908073 -3.872321 2.600069 0.326490 0.525820 -0.458440 0.353160 6.447138 -13.904921 2.569839 50.663206 -21.181000 -19.102460 25.688481 43.661893 5.998645 1.433650 -2.031190 -0.408900 0.293090 -0.054990 -0.294510 
0.188770 16.760010 -0.281950 -3.495236 -13.326350 12.914327 -15.209047 13.048627 2.627627 2.573430 -1.446682 -9.582493 -11.759069 6.964256 13.029472 -0.491302 4.995515 3.220536 0.480900 0.049790 0.271490 18.513859 -9.073857 3.946718 10.012446 7.880428 -37.512023 4.322859 -2.501581 10.194861 0.320056 -1.476592 4.203131 0.224390 0.614770 0.176820 -3.887735 -3.284931 -7.210318 15.920934 -10.769324 8.888556 -11.597221 -9.293628 -1.201934 2.553882 -6.545965 -4.207068 -11.581029 12.857231 15.026875 -3.234120 9.440410 -4.236950 -10.964747 14.369885 -2.118127 -35.818912 7.541185 -9.565938 50.777000 -57.883609 -25.795514 -3.850213 2.657710 0.340800 0.487750 -0.431560 0.369120 6.048925 -14.072290 2.266268 49.407691 -20.981477 -18.951193 24.379753 45.275566 6.158620 1.436731 -2.077941 -0.392010 0.286730 -0.082050 -0.282150 
0.181880 16.753730 -0.246700 -3.543509 -13.610527 13.188923 -15.206491 13.093195 2.646512 2.424053 -1.611102 -10.073569 -11.614657 7.066218 13.999320 -0.495321 5.023855 3.207867 0.479800 0.047540 0.298750 18.504694 -9.068272 3.959584 9.753197 7.868013 -37.739316 4.641493 -2.660599 10.989475 0.298886 -1.493310 4.194170 0.216970 0.598790 0.163070 -3.870913 -3.384037 -7.246534 15.725151 -11.122281 9.743642 -11.200807 -9.513437 -1.470891 2.370570 -6.545422 -4.300983 -11.653780 12.912766 15.205063 -3.582600 9.769670 -5.216320 -10.190323 14.323205 -1.882732 -34.041618 8.297981 -9.131644 51.122383 -55.931131 -24.762676 -3.865660 2.647075 0.368830 0.468630 -0.408560 0.358730 5.699032 -14.029941 2.094041 48.928774 -20.911186 -19.327014 21.978463 46.568808 5.766351 1.426979 -2.062226 -0.401640 0.311330 -0.085720 -0.294410 
